<?xml version="1.0" encoding="UTF-8" standalone="no"?>
<!-- Created with Inkscape (http://www.inkscape.org/) -->

<svg
   xmlns:dc="http://purl.org/dc/elements/1.1/"
   xmlns:cc="http://creativecommons.org/ns#"
   xmlns:rdf="http://www.w3.org/1999/02/22-rdf-syntax-ns#"
   xmlns:svg="http://www.w3.org/2000/svg"
   xmlns="http://www.w3.org/2000/svg"
   xmlns:sodipodi="http://sodipodi.sourceforge.net/DTD/sodipodi-0.dtd"
   xmlns:inkscape="http://www.inkscape.org/namespaces/inkscape"
   width="619.1875"
   height="320.625"
   id="svg2"
   version="1.1"
   inkscape:version="0.48.4 r9939"
   sodipodi:docname="cloud.svg">
  <defs
     id="defs4" />
  <sodipodi:namedview
     id="base"
     pagecolor="#ffffff"
     bordercolor="#666666"
     borderopacity="1.0"
     inkscape:pageopacity="0.0"
     inkscape:pageshadow="2"
     inkscape:zoom="0.7"
     inkscape:cx="265.3125"
     inkscape:cy="110.32532"
     inkscape:document-units="px"
     inkscape:current-layer="layer1"
     showgrid="true"
     inkscape:window-width="1143"
     inkscape:window-height="724"
     inkscape:window-x="3"
     inkscape:window-y="24"
     inkscape:window-maximized="0"
     fit-margin-top="0"
     fit-margin-left="0"
     fit-margin-right="0"
     fit-margin-bottom="0">
    <inkscape:grid
       type="xygrid"
       id="grid2985"
       empspacing="5"
       visible="true"
       enabled="true"
       snapvisiblegridlinesonly="true"
       originx="-109.6875px"
       originy="-409.67468px" />
  </sodipodi:namedview>
  <metadata
     id="metadata7">
    <rdf:RDF>
      <cc:Work
         rdf:about="">
        <dc:format>image/svg+xml</dc:format>
        <dc:type
           rdf:resource="http://purl.org/dc/dcmitype/StillImage" />
        <dc:title></dc:title>
      </cc:Work>
    </rdf:RDF>
  </metadata>
  <g
     inkscape:label="Layer 1"
     inkscape:groupmode="layer"
     id="layer1"
     transform="translate(-109.6875,-322.0625)">
    <path
       style="fill:#d4d5d7;fill-opacity:1;stroke:#838280;stroke-width:20.60000038;stroke-miterlimit:4;stroke-opacity:1;stroke-dasharray:none"
       d="m 380,332.375 c -61.03655,0 -111.4161,41.75387 -119,95.8125 -14.49695,-9.98907 -32.06344,-15.8125 -51,-15.8125 -49.70563,0 -90,40.29438 -90,90 0,49.70563 40.29437,90 90,90 5.49203,0 10.87317,-0.49531 16.09375,-1.4375 10.9336,24.40913 35.42921,41.4375 63.90625,41.4375 3.39735,0 6.73201,-0.251 10,-0.71875 l 0,0.71875 280,0 0,-1.4375 c 76.6587,-0.44003 138.5625,-36.09096 138.5625,-80 0,-31.71316 -32.2736,-59.12061 -79.09375,-72.0625 C 652.48756,468.24592 660,455.75195 660,442.375 c 0,-38.65993 -62.68014,-70 -140,-70 -15.508,0 -30.40122,1.26605 -44.34375,3.59375 C 453.74352,349.48441 419.05831,332.375 380,332.375 z"
       id="path2987"
       inkscape:connector-curvature="0" />
  </g>
</svg>
